<svg width="54" height="54" viewBox="0 0 54 54" fill="none" xmlns="http://www.w3.org/2000/svg">
<circle cx="27" cy="27" r="27" fill="white"/>
<path d="M24.9678 0.0528793C20.9662 0.432755 17.9888 1.27692 14.6207 2.98636C10.6296 5.02292 7.05033 8.23075 4.43186 12.1139C3.3338 13.7601 1.98233 16.5353 1.32771 18.4979C0.810353 20.0808 0.388019 21.8852 0.134619 23.6685C-0.0448729 24.9136 -0.0448729 29.0711 0.134619 30.3163C0.578069 33.4292 1.40162 36.1516 2.68974 38.758C4.13623 41.7126 5.5616 43.6964 7.90556 46.0495C10.2389 48.3709 12.2556 49.8166 15.0958 51.2095C17.0808 52.1802 18.3583 52.6551 20.375 53.1616C25.6541 54.4912 30.9544 54.2379 36.1069 52.4124C37.6801 51.8531 40.4041 50.4919 41.8084 49.5528C44.9653 47.4529 47.8583 44.4878 49.9277 41.2377C50.6879 40.0453 51.9127 37.5128 52.409 36.1094C54.8902 29.1239 54.4573 21.6319 51.1947 15.0791C49.8855 12.441 48.4179 10.3623 46.359 8.24131C44.0784 5.87764 41.8401 4.25262 38.852 2.77532C35.7268 1.23471 32.8127 0.4011 29.3495 0.0845375C28.2726 -0.0104294 25.8336 -0.0315361 24.9678 0.0528793ZM28.1776 13.2747C28.3887 13.4224 28.6949 13.7284 28.8533 13.95L29.1384 14.3615L29.1912 19.5426L29.244 24.7237L34.4281 24.7764L39.6122 24.8292L40.024 25.1141C40.2458 25.2724 40.5519 25.5784 40.6998 25.8C40.9215 26.1271 40.9637 26.3065 40.9637 26.9924C40.9637 27.6783 40.9215 27.8577 40.6998 28.1848C40.5519 28.4064 40.2458 28.7124 40.024 28.8707L39.6122 29.1556L34.4281 29.2083L29.244 29.2611L29.1912 34.4422L29.1384 39.6232L28.8533 40.0348C28.6949 40.2564 28.3887 40.5624 28.167 40.7101C27.8397 40.9317 27.6602 40.9739 26.9739 40.9739C26.2876 40.9739 26.1081 40.9317 25.7808 40.7101C25.5591 40.5624 25.2529 40.2564 25.0945 40.0348L24.8095 39.6232L24.7567 34.4422L24.7039 29.2611L19.5197 29.2083L14.3356 29.1556L13.9238 28.8707C13.2692 28.4064 12.9947 27.921 12.9524 27.1085C12.9102 26.2432 13.1953 25.6206 13.871 25.1458L14.325 24.8292L19.5092 24.7764L24.7039 24.7237L24.7567 19.5321L24.8095 14.351L25.1262 13.8972C25.6013 13.2219 26.2243 12.937 27.0901 12.9792C27.618 13.0109 27.8819 13.0847 28.1776 13.2747Z" fill="#0066FF"/>
</svg>
