<svg width="66" height="66" viewBox="0 0 66 66" fill="none" xmlns="http://www.w3.org/2000/svg">
<rect width="66" height="66" rx="9.70588" fill="#ECECEC"/>
<path d="M26.4878 19.5855C23.9362 19.95 21.5634 21.9155 20.7415 24.3598C20.3341 25.5605 20.3555 25.0817 20.3269 33.8726C20.2983 42.3205 20.3126 42.9066 20.5985 43.9501C21.3275 46.6302 23.779 48.7744 26.5521 49.1603C27.3168 49.2675 40.0244 49.2675 40.7892 49.1603C43.455 48.7887 45.785 46.8446 46.6355 44.286C47.0072 43.171 47 43.2568 47 35.8023V28.8339L46.807 28.2621C46.6998 27.9477 46.4854 27.4974 46.3282 27.2615C46.1495 26.9971 44.7772 25.5748 42.7332 23.5379C39.1167 19.9429 39.1096 19.9357 37.9875 19.6498C37.4586 19.514 37.1941 19.5069 32.1769 19.514C29.2823 19.5212 26.7236 19.5498 26.4878 19.5855ZM37.1155 23.9167C37.137 26.0251 37.1441 26.0537 37.3299 26.5826C37.7087 27.6046 38.4592 28.4694 39.3812 28.9411C40.2317 29.3628 40.3889 29.3914 42.6617 29.4271L44.7558 29.4557L44.7344 36.1168C44.7058 43.557 44.7415 43.0638 44.184 44.2002C43.5694 45.451 42.483 46.3515 41.0679 46.7875C40.6677 46.909 40.2245 46.9161 33.6349 46.9161H26.6307L26.0589 46.716C24.7224 46.2443 23.7504 45.4009 23.1572 44.2002C22.5926 43.0424 22.6283 43.7071 22.6283 34.3729C22.6283 25.1531 22.5997 25.7249 23.0857 24.6743C23.3645 24.0811 23.586 23.7666 24.072 23.2734C24.5652 22.7731 25.0941 22.4158 25.6873 22.1728C26.5807 21.8083 26.6378 21.8083 32.0411 21.8011L37.0869 21.794L37.1155 23.9167ZM43.0333 27.1043C43.0333 27.14 42.5402 27.1543 41.947 27.14C40.7248 27.1114 40.4175 27.0185 39.9744 26.5754C39.4884 26.0894 39.4312 25.8893 39.4026 24.5814L39.3812 23.4021L41.2037 25.2246C42.2114 26.2252 43.0333 27.0757 43.0333 27.1043Z" fill="#A4A4A4"/>
<path d="M33.2846 30.2636C33.0773 30.3351 32.5699 30.7925 31.362 31.9932C30.4686 32.8866 29.6753 33.7157 29.6181 33.8372C29.4537 34.1374 29.468 34.6519 29.6395 34.9521C29.8111 35.2452 30.2613 35.5168 30.583 35.5168C30.9761 35.5168 31.2476 35.3452 31.8837 34.702L32.4912 34.0873L32.527 36.7246C32.5627 39.2547 32.5699 39.3762 32.7128 39.562C32.9915 39.9408 33.2203 40.0552 33.6705 40.0552C34.1208 40.0552 34.3495 39.9408 34.6282 39.562C34.7712 39.3762 34.7783 39.2547 34.8141 36.7246L34.8498 34.0873L35.4573 34.702C36.2864 35.5382 36.6509 35.674 37.2441 35.3738C37.7301 35.1237 37.9588 34.6091 37.8159 34.0659C37.7444 33.8086 37.4942 33.5227 36.0791 32.1004C35.1643 31.1784 34.3424 30.3851 34.2423 30.3351C33.9421 30.1779 33.5848 30.1493 33.2846 30.2636Z" fill="#A4A4A4"/>
</svg>
