<svg width="30" height="30" viewBox="0 0 30 30" fill="none" xmlns="http://www.w3.org/2000/svg">
<path d="M13.7457 0.0291328C11.5427 0.238392 9.90348 0.703413 8.04921 1.64508C5.85199 2.76694 3.88147 4.53402 2.4399 6.67311C1.83538 7.5799 1.09134 9.10866 0.730954 10.1898C0.446129 11.0617 0.213619 12.0557 0.0741126 13.0381C-0.0247042 13.724 -0.0247042 16.0142 0.0741126 16.7001C0.318248 18.4149 0.771643 19.9146 1.4808 21.3503C2.27715 22.9779 3.06187 24.0707 4.3523 25.3669C5.63692 26.6457 6.74716 27.4421 8.31079 28.2094C9.40359 28.7441 10.1069 29.0057 11.2172 29.2847C14.1235 30.0171 17.0415 29.8776 19.8782 28.872C20.7443 28.564 22.244 27.8141 23.0171 27.2968C24.7551 26.14 26.3478 24.5066 27.4871 22.7163C27.9056 22.0595 28.5799 20.6644 28.8531 19.8913C30.2191 16.0433 29.9807 11.9162 28.1846 8.3065C27.4638 6.85331 26.6558 5.70819 25.5224 4.53983C24.2668 3.23777 23.0345 2.34261 21.3895 1.52882C19.6689 0.680161 18.0646 0.220953 16.158 0.0465698C15.5651 -0.00574493 14.2224 -0.0173702 13.7457 0.0291328ZM15.5128 7.31252C15.629 7.39389 15.7976 7.56246 15.8848 7.68453L16.0418 7.91123L16.0708 10.7653L16.0999 13.6194L18.9539 13.6484L21.808 13.6775L22.0347 13.8344C22.1568 13.9216 22.3253 14.0902 22.4067 14.2123C22.5288 14.3925 22.552 14.4913 22.552 14.8691C22.552 15.2469 22.5288 15.3457 22.4067 15.5259C22.3253 15.648 22.1568 15.8166 22.0347 15.9038L21.808 16.0607L18.9539 16.0898L16.0999 16.1188L16.0708 18.9729L16.0418 21.827L15.8848 22.0537C15.7976 22.1757 15.629 22.3443 15.507 22.4257C15.3268 22.5477 15.228 22.571 14.8501 22.571C14.4723 22.571 14.3735 22.5477 14.1933 22.4257C14.0712 22.3443 13.9027 22.1757 13.8155 22.0537L13.6585 21.827L13.6295 18.9729L13.6004 16.1188L10.7463 16.0898L7.89227 16.0607L7.66557 15.9038C7.30518 15.648 7.15405 15.3806 7.1308 14.933C7.10755 14.4564 7.26449 14.1134 7.63651 13.8519L7.88646 13.6775L10.7405 13.6484L13.6004 13.6194L13.6295 10.7595L13.6585 7.90542L13.8329 7.65547C14.0945 7.28345 14.4374 7.12651 14.9141 7.14976C15.2047 7.1672 15.35 7.20789 15.5128 7.31252Z" fill="#0066FF"/>
</svg>
