<svg width="98" height="120" viewBox="0 0 98 120" fill="none" xmlns="http://www.w3.org/2000/svg">
<path d="M10.0372 0.35157C6.26376 1.28909 3.12309 3.79693 1.459 7.26572C0.943372 8.3673 0.404302 9.89076 0.263675 10.6408C-0.0878918 12.5861 -0.0878918 107.416 0.263675 109.361C0.919934 113.041 3.84966 116.955 7.10752 118.548C10.2951 120.072 7.88097 120.002 48.7565 120.002C89.7024 120.002 87.3117 120.072 90.4524 118.525C92.2337 117.658 94.5306 115.525 95.515 113.814C95.89 113.181 96.4525 111.986 96.7806 111.119L97.39 109.572L97.4603 73.4307L97.5072 37.2896L84.3351 37.2193C69.8037 37.1021 70.3193 37.1489 67.1786 35.5786C64.4599 34.1958 61.9051 31.1957 60.8973 28.1488C60.3817 26.6488 60.3582 26.2972 60.2879 13.2892L60.2176 0L35.7954 0.0234375C15.8733 0.046875 11.1388 0.09375 10.0372 0.35157ZM38.2095 18.8909C39.2876 19.1253 40.7174 20.555 40.9049 21.6331C41.1627 22.9222 40.5064 24.4691 39.4283 25.1957L38.5611 25.7816H28.1781C18.053 25.7816 17.7483 25.7582 16.8811 25.2894C15.7561 24.6566 15.1936 23.6722 15.1936 22.3597C15.1936 20.9534 15.8498 19.9221 17.1155 19.2659C18.1467 18.7503 18.2639 18.7503 27.8031 18.7503C33.1001 18.7503 37.7876 18.8206 38.2095 18.8909ZM50.655 34.5239C52.7878 35.9536 52.741 38.7662 50.5378 40.4068C49.905 40.899 49.694 40.899 33.8032 40.899C18.0295 40.899 17.678 40.899 16.8811 40.4302C14.4201 38.9771 14.6779 35.3442 17.3498 34.1723C17.5373 34.0786 24.9437 34.0083 33.7798 34.0083L49.8581 33.9848L50.655 34.5239ZM35.397 53.2507C35.8188 53.5554 36.4048 54.0945 36.6626 54.4461C37.1314 55.0789 37.1548 55.407 37.2251 63.4696C37.2954 71.8369 37.2954 71.8604 36.7564 72.8682C35.7485 74.7666 35.772 74.7666 26.1156 74.7666C17.7248 74.7666 17.6545 74.7666 16.8811 74.2276C16.4592 73.9463 15.8733 73.4072 15.6154 73.0557C15.1467 72.4229 15.1233 72.0713 15.0529 64.454C14.9826 56.157 15.0529 55.1961 15.9905 54.0242C16.9514 52.782 17.2561 52.7585 26.2797 52.7351C34.5532 52.7351 34.6235 52.7351 35.397 53.2507ZM65.3974 53.157C65.8427 53.3679 66.4521 53.9304 66.7568 54.3757C67.2255 55.0554 67.2958 55.407 67.2255 56.4383C67.1083 57.868 66.5693 58.6883 65.3974 59.3211C64.6474 59.7196 63.9208 59.7664 56.3973 59.7664C48.6862 59.7664 48.1471 59.743 47.2331 59.2977C44.6783 58.0555 44.6315 54.3757 47.1628 53.1335C47.8424 52.8054 49.0612 52.7351 56.2566 52.7351C63.7099 52.7351 64.6708 52.782 65.3974 53.157ZM80.8195 68.3916C81.8038 69.1181 82.3195 70.126 82.3195 71.4385C82.3195 72.6338 81.8507 73.4072 80.632 74.2276L79.8585 74.7666H63.9442C46.6002 74.7666 46.9752 74.7901 45.9909 73.4307C44.983 72.0244 45.0299 70.4072 46.108 69.1181C47.3034 67.6884 46.694 67.7353 64.1083 67.8056L80.046 67.8525L80.8195 68.3916ZM35.397 83.3214C35.8892 83.6027 36.4282 84.2355 36.7564 84.8449C37.2954 85.8996 37.2954 85.9465 37.2251 94.2669L37.1548 102.611L36.4282 103.525C36.0298 104.017 35.3501 104.533 34.9048 104.697C34.3423 104.884 31.6704 104.978 26.139 104.978C18.3108 105.001 18.1233 105.001 17.1155 104.462C16.5061 104.158 15.8733 103.619 15.592 103.126C15.1467 102.353 15.1233 101.908 15.1233 93.9857C15.1233 84.8918 15.1701 84.5637 16.4592 83.6261C16.8577 83.3683 17.4905 83.0636 17.9124 82.9464C18.3108 82.8527 22.2249 82.7824 26.6078 82.8058C34.1313 82.8527 34.6235 82.8761 35.397 83.3214ZM65.5614 83.3449C67.6708 84.9152 67.8583 87.3293 65.9833 89.0637L65.3505 89.6497L56.6551 89.72C50.4206 89.7668 47.7721 89.6965 47.3034 89.509C45.194 88.6418 44.608 85.5012 46.2721 83.9308C47.4674 82.8058 48.0534 82.7355 56.7723 82.8058C64.6005 82.8527 64.9286 82.8761 65.5614 83.3449ZM81.2413 98.931C83.0461 100.759 82.5773 103.548 80.2804 104.556C79.296 105.001 78.6163 105.001 63.4286 104.955C47.8659 104.884 47.6081 104.884 46.9752 104.392C44.7721 102.751 44.7252 99.9389 46.8581 98.5092L47.6784 97.9701L64.038 98.017L80.3976 98.0873L81.2413 98.931Z" fill="#D6D6D6"/>
<path d="M22.0374 63.7509V67.7353H26.139H30.2407V63.7509V59.7664H26.139H22.0374V63.7509Z" fill="#D6D6D6"/>
<path d="M22.1546 90.0715C22.0843 90.2356 22.0609 92.0638 22.0843 94.1028L22.1546 97.8529L26.2093 97.9232L30.2407 97.9701L30.1938 93.9388L30.1235 89.884L26.1859 89.8137C23.1156 89.7668 22.2249 89.8137 22.1546 90.0715Z" fill="#D6D6D6"/>
<path d="M67.2724 13.383C67.2724 25.9222 67.3193 26.2738 68.7021 27.9613C69.1005 28.4535 69.9677 29.1332 70.6474 29.4848L71.8428 30.1176L83.5148 30.1879C89.9133 30.2348 95.1634 30.1879 95.1634 30.0707C95.1634 29.977 88.8821 23.6019 81.2179 15.9377L67.2724 1.99224V13.383Z" fill="#D6D6D6"/>
</svg>
