<svg width="16" height="16" viewBox="0 0 16 16" fill="none" xmlns="http://www.w3.org/2000/svg">
<path d="M2.28573 13.6852L2.28573 1.60739C2.28573 1.48419 2.33467 1.36603 2.42179 1.27891C2.5089 1.1918 2.62706 1.14286 2.75026 1.14286L12.0409 1.14286C12.1641 1.14286 12.2823 1.1918 12.3694 1.27892C12.4565 1.36603 12.5054 1.48419 12.5054 1.60739L12.5054 2.53645L11.5764 2.53645L11.5764 2.07192L3.21479 2.07192L3.21479 13.2207L11.5764 13.2207L11.5764 11.8271L12.5054 11.8271L12.5054 13.6852C12.5054 13.8084 12.4565 13.9266 12.3694 14.0137C12.2823 14.1008 12.1641 14.1497 12.0409 14.1497L2.75026 14.1497C2.62706 14.1497 2.5089 14.1008 2.42179 14.0137C2.33467 13.9266 2.28573 13.8084 2.28573 13.6852ZM9.85295 5.65346L11.3859 7.18177L6.46652 7.18177L6.46652 8.11083L11.3859 8.11084L9.85295 9.63915L10.5126 10.2988L12.8352 7.97612C12.8788 7.93294 12.9133 7.88156 12.9369 7.82495C12.9605 7.76834 12.9727 7.70763 12.9727 7.6463C12.9727 7.58498 12.9605 7.52426 12.9369 7.46766C12.9133 7.41105 12.8788 7.35967 12.8352 7.31649L10.5126 4.99383L9.85295 5.65346Z" fill="black"/>
</svg>
