<svg width="127" height="127" viewBox="0 0 127 127" fill="none" xmlns="http://www.w3.org/2000/svg">
<path d="M126.118 63.0588C126.118 63.0047 126.118 62.9235 126.118 62.8693C126.118 62.4363 126.118 62.0033 126.09 61.5973C126.09 61.3538 126.063 61.1102 126.063 60.8395C126.063 60.596 126.036 60.3524 126.036 60.1088C126.009 59.8111 126.009 59.5134 125.982 59.2157C125.982 59.0263 125.955 58.8368 125.955 58.6474C125.928 58.3226 125.901 57.9978 125.874 57.6731C125.874 57.5378 125.847 57.3754 125.847 57.24C125.82 56.8882 125.766 56.5364 125.739 56.1575C125.739 56.0763 125.712 55.968 125.712 55.8869C122.139 24.4387 95.4542 0 63.0588 0C30.6633 0 3.97839 24.4387 0.405958 55.9139C0.405958 55.9951 0.378894 56.1034 0.378894 56.1846C0.35183 56.5364 0.297702 56.8882 0.270639 57.2671C0.243575 57.4024 0.243575 57.5648 0.243575 57.7001C0.216511 58.0249 0.189447 58.3497 0.162383 58.6744C0.162383 58.8639 0.135319 59.0533 0.135319 59.2428C0.108255 59.5405 0.108255 59.8382 0.0811914 60.1359C0.0811914 60.3795 0.0541279 60.623 0.0541279 60.8666C0.0541279 61.1102 0.027064 61.3538 0.027064 61.6244C0.027064 62.0574 0 62.4904 0 62.8964C0 62.9505 0 63.0317 0 63.0858C0 63.0858 0 63.0858 0 63.1129C0 63.14 0 63.1129 0 63.14C0 63.1941 0 63.2753 0 63.3294C0 63.7624 1.02837e-07 64.1955 0.027064 64.6014C0.027064 64.845 0.0541279 65.0886 0.0541279 65.3592C0.0541279 65.6028 0.0811914 65.8464 0.0811914 66.0899C0.108255 66.3876 0.108255 66.6853 0.135319 66.983C0.135319 67.1725 0.162383 67.3619 0.162383 67.5514C0.189447 67.8761 0.216511 68.2009 0.243575 68.5257C0.243575 68.661 0.270639 68.8234 0.270639 68.9587C0.297702 69.3105 0.35183 69.6624 0.378894 70.0413C0.378894 70.1224 0.405958 70.2307 0.405958 70.3119C3.97839 101.733 30.6633 126.172 63.0588 126.172C95.4542 126.172 122.139 101.733 125.712 70.2848C125.712 70.2036 125.739 70.0954 125.739 70.0142C125.766 69.6624 125.82 69.3105 125.847 68.9316C125.874 68.7963 125.874 68.6339 125.874 68.4986C125.901 68.1738 125.928 67.8491 125.955 67.5243C125.955 67.3349 125.982 67.1454 125.982 66.956C126.009 66.6583 126.009 66.3606 126.036 66.0629C126.036 65.8193 126.063 65.5757 126.063 65.3321C126.063 65.0886 126.09 64.845 126.09 64.5744C126.09 64.1413 126.118 63.7083 126.118 63.3023C126.118 63.2482 126.118 63.167 126.118 63.1129C126.118 63.0858 126.118 63.0858 126.118 63.0588C126.118 63.0858 126.118 63.0858 126.118 63.0588Z" fill="#34C759"/>
<path d="M51.5845 86.9559L93.8311 44.7363" stroke="white" stroke-width="8.11916" stroke-miterlimit="10"/>
<path d="M57.0508 87.2268L35.6433 65.8193" stroke="white" stroke-width="8.11916" stroke-miterlimit="10"/>
</svg>
