<svg width="16" height="16" viewBox="0 0 16 16" fill="none" xmlns="http://www.w3.org/2000/svg">
<path d="M3.35168 7.06768V11.2205L3.00228 10.8711L2.65289 10.5217L2.27687 10.8977L1.90417 11.2704L2.8958 12.2587L3.8841 13.2504L4.8724 12.2587L5.86402 11.2704L5.49133 10.8977L5.11531 10.5217L4.76591 10.8711L4.41652 11.2205V7.06768V2.91815H3.8841H3.35168V7.06768Z" fill="black"/>
<path d="M6.54614 3.45052V3.98294H10.2731H14V3.45052V2.91811H10.2731H6.54614V3.45052Z" fill="black"/>
<path d="M6.54614 6.11263V6.64505H9.47443H12.4027V6.11263V5.58022H9.47443H6.54614V6.11263Z" fill="black"/>
<path d="M6.54614 8.77468V9.3071H8.67581H10.8055V8.77468V8.24226H8.67581H6.54614V8.77468Z" fill="black"/>
<path d="M6.54614 11.4368V11.9692H7.87718H9.20823V11.4368V10.9044H7.87718H6.54614V11.4368Z" fill="black"/>
</svg>
