<svg width="28" height="28" viewBox="0 0 28 28" fill="none" xmlns="http://www.w3.org/2000/svg">
<circle cx="14" cy="14" r="14" fill="black"/>
<path d="M17.862 13.9614C17.862 13.7262 17.7747 13.5246 17.5865 13.3498L12.3576 8.22851C12.2098 8.08065 12.0216 8 11.7998 8C11.3562 8 11 8.34948 11 8.79978C11 9.02157 11.0941 9.21648 11.242 9.37106L15.9533 13.9614L11.2419 18.5518C11.0941 18.7064 11 18.908 11 19.1231C11 19.5734 11.3562 19.9229 11.7998 19.9229C12.0216 19.9229 12.2098 19.8422 12.3576 19.6943L17.5865 14.5797C17.7747 14.3983 17.862 14.1967 17.862 13.9614Z" fill="white"/>
</svg>
