<svg width="12" height="17" viewBox="0 0 12 17" fill="none" xmlns="http://www.w3.org/2000/svg">
<path d="M5.99441 0C2.68966 0 1.41711e-06 2.69073 0 5.99547C-2.07116e-06 11.8104 5.65695 16.231 5.65695 16.231C5.85568 16.3893 6.1374 16.3893 6.33613 16.231C6.33613 16.231 11.9942 11.8104 11.9941 5.99547C11.9941 2.69073 9.29916 0 5.99441 0ZM5.99441 3.27132C7.49305 3.27132 8.72281 4.49684 8.72282 5.99547C8.72283 7.49413 7.49306 8.72282 5.99441 8.72282C4.49576 8.72282 3.27025 7.49413 3.27026 5.99547C3.27026 4.49684 4.49577 3.27132 5.99441 3.27132Z" fill="black"/>
</svg>
